<svg width="36" height="36" viewBox="0 0 36 36" fill="none" xmlns="http://www.w3.org/2000/svg">
<path d="M1.5 25.4999V29.9999C1.5 30.8283 2.17157 31.4999 3 31.4999H24C24.8284 31.4999 25.5 30.8283 25.5 29.9999V25.4999C25.5 22.1862 22.8137 19.4999 19.5 19.4999H7.5C4.18629 19.4999 1.5 22.1862 1.5 25.4999Z" fill="#151515"/>
<path d="M28.4762 30.4676C28.423 30.9824 28.7871 31.4999 29.3047 31.4999H33.0002C33.8286 31.4999 34.5002 30.8283 34.5002 29.9999V25.4999C34.5002 22.1862 31.8139 19.4999 28.5002 19.4999H27.0474C26.7232 19.4999 26.5453 19.8895 26.7382 20.15C27.8454 21.6455 28.5002 23.4962 28.5002 25.4999V29.9999C28.5002 30.1578 28.492 30.3138 28.4762 30.4676Z" fill="#151515"/>
<path d="M19.5 10.4999C19.5 13.8136 16.8137 16.4999 13.5 16.4999C10.1863 16.4999 7.5 13.8136 7.5 10.4999C7.5 7.18617 10.1863 4.49988 13.5 4.49988C16.8137 4.49988 19.5 7.18617 19.5 10.4999Z" fill="#151515"/>
<path d="M21.526 16.4212C21.0148 16.3378 20.8406 15.7338 21.1169 15.2958C21.9929 13.9074 22.4998 12.2628 22.4998 10.4999C22.4998 8.73691 21.9929 7.09233 21.1169 5.70395C20.8406 5.26597 21.0148 4.66193 21.526 4.57851C21.8429 4.52678 22.1682 4.49988 22.4998 4.49988C25.8135 4.49988 28.4998 7.18617 28.4998 10.4999C28.4998 13.8136 25.8135 16.4999 22.4998 16.4999C22.1682 16.4999 21.8429 16.473 21.526 16.4212Z" fill="#151515"/>
</svg>
